# xmcd
#
# Track frame offsets:
#	150
#	11840
#	24380
#	35060
#	48410
#	61172
#	70777
#	81835
#	94890
#	106442
#	117920
#	129912
#	141210
#	152872
#	163685
#	179480
#	193395
#	204877
#	217370
#	231202
#	244432
#	257607
#	267335
#
# Disc length: 3711 seconds
#
# Revision: 0
# Processed by: cddbd v1.5.1PL0 Copyright (c) Steve Scherf et al.
# Submitted via: EasyCDDAExtractor 8.0.2.1
#
DISCID=580e7d17
DTITLE=Don Cherry - There Goes My Everything-Take A Message To Mary
DYEAR=2003
DGENRE=Bass
TTITLE0=There Goes My Everything
TTITLE1=It Isn't Fair
TTITLE2=Odds And Ends
TTITLE3=Vanity
TTITLE4=That Lucky Old Sun
TTITLE5=I Don't Want To Go Home
TTITLE6=Band Of Gold 
TTITLE7=I Know Love
TTITLE8=Thinking Of You
TTITLE9=Serenade Of The Bells
TTITLE10=Married
TTITLE11=To Think You've Chosen Me
TTITLE12=Whippoorwill
TTITLE13=Misty Blue
TTITLE14=Lonely Street
TTITLE15=Maybe You'll Be There
TTITLE16=Good Morning Dear
TTITLE17=Love Me With All Your Heart
TTITLE18=Here Comes The Rain
TTITLE19=In My Youth
TTITLE20=Take A Message To Mary
TTITLE21=Let Me Lead The Way
TTITLE22=Road To Love
EXTD=
EXTT0=
EXTT1=
EXTT2=
EXTT3=
EXTT4=
EXTT5=
EXTT6=
EXTT7=
EXTT8=
EXTT9=
EXTT10=
EXTT11=
EXTT12=
EXTT13=
EXTT14=
EXTT15=
EXTT16=
EXTT17=
EXTT18=
EXTT19=
EXTT20=
EXTT21=
EXTT22=
PLAYORDER=
